<svg width="50" height="43" viewBox="0 0 50 43" fill="none" xmlns="http://www.w3.org/2000/svg">
<g clip-path="url(#clip0_311_37)">
<path d="M2.43998 3.97382C3.45796 3.21033 4.30628 3.29516 5.25182 3.71078C12.8813 7.00291 16.7034 9.96743 22.8799 14.669C23.8466 15.5279 23.8612 16.0097 22.8799 16.8686L21.3575 18.1724C20.1384 18.9937 19.6429 19.1813 18.5581 18.426C17.2007 17.327 15.5041 17.0734 14.062 18.426C14.062 18.426 11.4091 20.4282 9.73553 21.8923C8.74268 22.7608 8.37821 22.8222 8.07405 22.5507C7.76988 22.2792 7.43031 19.1598 8.07405 18.2433C8.71778 17.3268 11.1088 15.7688 11.1088 15.7688C12.9774 14.612 13.0215 13.8928 11.1088 12.4695L9.6374 11.4613C7.08381 9.459 6.26561 10.2375 5.68304 13.7525C5.08838 19.013 4.94734 26.0333 5.13127 27.2248C5.31519 28.4162 5.83182 29.3436 6.69462 30.1575C7.84481 30.8961 8.48697 30.8916 9.6374 30.1575C17.3685 24.8904 21.6012 21.6627 28.9494 15.4022C34.9137 10.8759 38.1133 8.70478 43.4794 5.22928C46.9106 3.34418 49.062 2.37626 49.4516 5.40107C51.3335 18.3554 51.5924 22.0658 49.4675 35.9807C48.6108 39.5303 46.9336 40.1057 42.3672 37.8049C35.9362 33.4777 32.8176 31.1211 28.8575 27.3164C27.2659 25.9466 27.4037 25.1665 28.9494 24.1087C31.1025 22.6501 32.2079 22.6568 34.0073 24.1087L42.008 31.1656C43.9393 32.6829 44.552 32.399 44.7669 29.8826C45.3482 22.5184 45.3324 19.0155 44.7669 13.7525C44.552 11.2142 43.9181 10.6419 42.008 10.9115C40.9712 10.9542 39.2584 12.0066 34.5591 15.4022L9.6374 35.4731C8.03375 36.4641 7.17819 37.1872 5.31519 37.581C4.0683 37.7781 3.20006 37.4893 2.37241 37.0311C1.37835 36.2639 1.14964 35.7905 0.901015 34.3733C-0.449707 23.3812 -0.202063 17.5415 1.11352 6.82681C1.24495 5.75638 1.55803 4.88852 2.43998 3.97382Z" fill="url(#paint0_linear_311_37)"/>
</g>
<defs>
<linearGradient id="paint0_linear_311_37" x1="1.01343e-10" y1="21" x2="51" y2="20.9938" gradientUnits="userSpaceOnUse">
<stop stop-color="#F7AB0A"/>
<stop offset="1" stop-color="#D3D3D3"/>
</linearGradient>
<clipPath id="clip0_311_37">
<rect width="50" height="42" fill="white"/>
</clipPath>
</defs>
</svg>
